<mxfile host="app.diagrams.net" modified="2023-10-18T09:47:20.490Z" agent="Mozilla/5.0 (Macintosh; Intel Mac OS X 10_15_7) AppleWebKit/605.1.15 (KHTML, like Gecko) Version/16.2 Safari/605.1.15" version="22.0.4" etag="oOpZH1sJ1kZBn5_sVOCQ" type="github">
  <diagram name="Page-1" id="g-esNrf2W0bQ0o0W4bVj">
    <mxGraphModel>
      <root>
        <mxCell id="0" />
        <mxCell id="1" parent="0" />
      </root>
    </mxGraphModel>
  </diagram>
</mxfile>
